<svg width="403" height="290" viewBox="0 0 403 290" fill="none" xmlns="http://www.w3.org/2000/svg">
<g clip-path="url(#clip0_485_969)">
<path fill-rule="evenodd" clip-rule="evenodd" d="M252.194 58.3475C228.914 60.9657 211.316 80.654 211.316 104.081L211.316 136.083L211.316 186.201C210.191 186.624 209.084 187.113 208.001 187.668L126.461 229.432C96.5563 244.749 107.45 289.914 141.049 289.914H304.13C337.729 289.914 348.622 244.749 318.718 229.432L237.177 187.668C235.919 187.023 234.629 186.468 233.316 186L233.316 136.083L233.316 104.081C233.316 91.8529 242.501 81.5763 254.653 80.2097C283.442 76.9719 292.288 118.036 264.72 126.94L254.146 130.355L243.678 133.735L250.44 154.67L260.907 151.29L271.481 147.875C324.298 130.817 307.349 52.1444 252.194 58.3475ZM218.031 207.249L142.542 245.914L142.409 245.982L141.049 246.678L136.49 249.013C127.145 253.8 130.549 267.914 141.049 267.914H146.171H147.699H147.848H297.331H297.479H299.008H304.13C314.629 267.914 318.034 253.8 308.689 249.013L304.13 246.678L302.769 245.982L302.637 245.914L227.148 207.249C224.286 205.783 220.893 205.783 218.031 207.249Z" fill="black"/>
<path d="M51.1106 114.586L77.4934 153H106.798L66.8372 98.7734L101.9 60.0156H73.1966L47.5013 88.2031L40.2825 96.4531V21H16.3919V153H40.2825V124.641L51.1106 114.586ZM155.514 154.719C164.509 154.719 172.301 152.971 178.889 149.477C185.478 145.982 190.29 142.086 193.327 137.789L181.382 124.898C178.632 128.451 175.051 131.115 170.639 132.891C166.228 134.667 161.673 135.555 156.975 135.555C153.652 135.555 150.587 135.039 147.78 134.008C144.973 132.977 142.481 131.516 140.303 129.625C138.184 127.792 136.494 125.758 135.233 123.523C133.973 121.232 132.941 118.224 132.139 114.5V114.242H195.217V104.102C195.217 97.2839 194.272 91.0677 192.382 85.4531C190.491 79.7812 187.741 74.9401 184.132 70.9297C180.465 66.9193 175.996 63.8255 170.725 61.6484C165.512 59.4141 159.553 58.2969 152.85 58.2969C146.376 58.2969 140.389 59.4714 134.889 61.8203C129.389 64.1693 124.634 67.4635 120.624 71.7031C116.613 75.9427 113.491 81.013 111.257 86.9141C109.022 92.7578 107.905 99.2318 107.905 106.336V109.773C107.905 116.018 109.022 121.891 111.257 127.391C113.548 132.833 116.785 137.56 120.967 141.57C125.15 145.638 130.163 148.846 136.007 151.195C141.85 153.544 148.353 154.719 155.514 154.719ZM152.678 77.6328C155.715 77.6328 158.379 78.1198 160.671 79.0938C163.02 80.0104 164.996 81.2708 166.6 82.875C168.204 84.5365 169.465 86.4844 170.382 88.7188C171.298 90.9531 171.757 93.3307 171.757 95.8516V97.7422H132.569C133.142 94.7057 134.001 91.9557 135.147 89.4922C136.293 87.0286 137.725 84.9089 139.444 83.1328C141.106 81.3568 143.053 80.0104 145.288 79.0938C147.522 78.1198 149.986 77.6328 152.678 77.6328Z" fill="black"/>
<path d="M355.594 37.2422H331.703V60.0156H310.477V77.6328H331.703V119.914C331.703 126.044 332.505 131.315 334.109 135.727C335.714 140.081 338.005 143.661 340.984 146.469C343.906 149.333 347.43 151.453 351.555 152.828C355.737 154.146 360.378 154.805 365.477 154.805C368.112 154.805 370.776 154.661 373.469 154.375C376.219 154.146 378.854 153.802 381.375 153.344C383.896 152.885 386.273 152.312 388.508 151.625C390.742 150.88 392.69 150.021 394.352 149.047L392.031 132.633C390.943 132.919 389.625 133.206 388.078 133.492C386.589 133.779 384.984 134.036 383.266 134.266C381.49 134.552 379.628 134.781 377.68 134.953C375.789 135.125 373.927 135.211 372.094 135.211C369.573 135.211 367.281 134.924 365.219 134.352C363.214 133.779 361.495 132.805 360.062 131.43C358.63 130.112 357.513 128.336 356.711 126.102C355.966 123.81 355.594 120.974 355.594 117.594V77.6328H390.312V60.0156H355.594V37.2422Z" fill="black"/>
</g>
<defs>
<clipPath id="clip0_485_969">
<rect width="403" height="290" fill="white"/>
</clipPath>
</defs>
</svg>
